{
	"asset":{
		"generator":"Khronos glTF Blender I/O v4.2.70",
		"version":"2.0"
	},
	"scene":0,
	"scenes":[
		{
			"name":"Scene",
			"nodes":[
				15
			]
		}
	],
	"nodes":[
		{
			"mesh":0,
			"name":"Cube_0"
		},
		{
			"children":[
				0
			],
			"name":"Cube",
			"rotation":[
				-0.0022936586756259203,
				0.707103431224823,
				-0.7071027159690857,
				0.0022936577443033457
			],
			"scale":[
				1.317139983177185,
				0.5200000405311584,
				0.06025000289082527
			],
			"translation":[
				-2.5626766681671143,
				0.5371057987213135,
				-5.7996649742126465
			]
		},
		{
			"mesh":1,
			"name":"Cube.001_0"
		},
		{
			"children":[
				2
			],
			"name":"Cube.001",
			"rotation":[
				0,
				0,
				-0.9999947547912598,
				0.0032437231857329607
			],
			"translation":[
				-2.4180612564086914,
				-0.41271576285362244,
				-5.931605339050293
			]
		},
		{
			"mesh":2,
			"name":"Cube.002_0"
		},
		{
			"children":[
				4
			],
			"name":"Cube.002",
			"rotation":[
				-0.0022936586756259203,
				0.707103431224823,
				-0.7071027159690857,
				0.0022936579771339893
			],
			"translation":[
				-2.4835727214813232,
				-0.0551631823182106,
				-6.005395412445068
			]
		},
		{
			"mesh":3,
			"name":"Cube.006_0"
		},
		{
			"children":[
				6
			],
			"name":"Cube.006",
			"rotation":[
				-0.49837541580200195,
				-0.5016194581985474,
				0.5016191005706787,
				0.49837565422058105
			],
			"scale":[
				0.20869003236293793,
				0.29461005330085754,
				0.29461002349853516
			],
			"translation":[
				-2.415497064590454,
				-0.8079573512077332,
				-5.931605815887451
			]
		},
		{
			"mesh":4,
			"name":"Final500K_0",
			"rotation":[
				0,
				0,
				-0.9999947547912598,
				0.0032437231857329607
			],
			"translation":[
				1.6365599632263184,
				0.040150973945856094,
				-0.18103599548339844
			]
		},
		{
			"mesh":5,
			"name":"Final500K_0.001",
			"rotation":[
				0,
				0,
				-0.9999947547912598,
				0.0032437231857329607
			],
			"translation":[
				1.6365599632263184,
				0.040150973945856094,
				-0.18103599548339844
			]
		},
		{
			"mesh":6,
			"name":"Final500K_0.002",
			"rotation":[
				0,
				0,
				-0.9999947547912598,
				0.0032437231857329607
			],
			"translation":[
				1.6365599632263184,
				0.040150973945856094,
				-0.18103599548339844
			]
		},
		{
			"mesh":7,
			"name":"Final500K_0.003",
			"rotation":[
				0,
				0,
				-0.9999947547912598,
				0.0032437231857329607
			],
			"translation":[
				1.6365599632263184,
				0.040150973945856094,
				-0.18103599548339844
			]
		},
		{
			"mesh":8,
			"name":"Final500K_0.004",
			"rotation":[
				0,
				0,
				-0.9999947547912598,
				0.0032437231857329607
			],
			"translation":[
				1.6365599632263184,
				0.040150973945856094,
				-0.18103599548339844
			]
		},
		{
			"children":[
				8,
				9,
				10,
				11,
				12
			],
			"name":"Final500K",
			"translation":[
				-3.2206199169158936,
				0.0012700113002210855,
				0.008841020055115223
			]
		},
		{
			"children":[
				1,
				3,
				5,
				7,
				13
			],
			"name":"Root"
		},
		{
			"children":[
				14
			],
			"name":"Sketchfab_model",
			"rotation":[
				-0.70710688829422,
				0,
				0,
				0.7071066498756409
			],
			"scale":[
				0.8656397461891174,
				0.8656398057937622,
				0.8256398439407349
			],
			"translation":[
				2.059999942779541,
				5.569999694824219,
				0.05000007152557373
			]
		}
	],
	"materials":[
		{
			"doubleSided":true,
			"name":"Material.010",
			"pbrMetallicRoughness":{
				"baseColorFactor":[
					0.7579697370529175,
					0,
					1,
					1
				],
				"roughnessFactor":0
			}
		},
		{
			"doubleSided":true,
			"name":"Cube.001_0",
			"pbrMetallicRoughness":{
				"baseColorFactor":[
					0.12492173910140991,
					0,
					0.1541539579629898,
					1
				],
				"roughnessFactor":0.8065930008888245
			}
		},
		{
			"alphaMode":"BLEND",
			"doubleSided":true,
			"name":"Material.008",
			"pbrMetallicRoughness":{
				"baseColorFactor":[
					0.605328381061554,
					0.25221148133277893,
					0.17649468779563904,
					0.14462652802467346
				],
				"roughnessFactor":0.06878811120986938
			}
		},
		{
			"doubleSided":true,
			"name":"SketchfabPBRExtractor",
			"pbrMetallicRoughness":{
				"baseColorTexture":{
					"index":0
				},
				"metallicRoughnessTexture":{
					"index":1
				}
			}
		}
	],
	"meshes":[
		{
			"name":"Cube_0",
			"primitives":[
				{
					"attributes":{
						"POSITION":0,
						"NORMAL":1
					},
					"indices":2,
					"material":0
				}
			]
		},
		{
			"name":"Cube.001_0",
			"primitives":[
				{
					"attributes":{
						"POSITION":3,
						"NORMAL":4
					},
					"indices":5,
					"material":1
				}
			]
		},
		{
			"name":"Cube.002_0",
			"primitives":[
				{
					"attributes":{
						"POSITION":6,
						"NORMAL":7,
						"TEXCOORD_0":8
					},
					"indices":9,
					"material":2
				}
			]
		},
		{
			"name":"Cube.006_0",
			"primitives":[
				{
					"attributes":{
						"POSITION":10,
						"NORMAL":11,
						"TEXCOORD_0":12
					},
					"indices":13,
					"material":2
				}
			]
		},
		{
			"name":"Final500K_0",
			"primitives":[
				{
					"attributes":{
						"POSITION":14,
						"NORMAL":15,
						"TEXCOORD_0":16
					},
					"indices":17,
					"material":3
				}
			]
		},
		{
			"name":"Final500K_0.001",
			"primitives":[
				{
					"attributes":{
						"POSITION":18,
						"NORMAL":19,
						"TEXCOORD_0":20
					},
					"indices":21,
					"material":3
				}
			]
		},
		{
			"name":"Final500K_0.002",
			"primitives":[
				{
					"attributes":{
						"POSITION":22,
						"NORMAL":23,
						"TEXCOORD_0":24
					},
					"indices":25,
					"material":3
				}
			]
		},
		{
			"name":"Final500K_0.003",
			"primitives":[
				{
					"attributes":{
						"POSITION":26,
						"NORMAL":27,
						"TEXCOORD_0":28
					},
					"indices":29,
					"material":3
				}
			]
		},
		{
			"name":"Final500K_0.004",
			"primitives":[
				{
					"attributes":{
						"POSITION":30,
						"NORMAL":31,
						"TEXCOORD_0":32
					},
					"indices":33,
					"material":3
				}
			]
		}
	],
	"textures":[
		{
			"sampler":0,
			"source":0
		},
		{
			"sampler":0,
			"source":1
		}
	],
	"images":[
		{
			"mimeType":"image/jpeg",
			"name":"SketchfabPBRExtractor_baseColor",
			"uri":"textures/SketchfabPBRExtractor_baseColor.jpg"
		},
		{
			"mimeType":"image/png",
			"name":"SketchfabPBRExtractor_metallicRoughness",
			"uri":"textures/SketchfabPBRExtractor_metallicRoughness.png"
		}
	],
	"accessors":[
		{
			"bufferView":0,
			"componentType":5126,
			"count":66,
			"max":[
				1,
				1,
				1
			],
			"min":[
				-1,
				-1.720170021057129,
				-1
			],
			"type":"VEC3"
		},
		{
			"bufferView":1,
			"componentType":5126,
			"count":66,
			"type":"VEC3"
		},
		{
			"bufferView":2,
			"componentType":5123,
			"count":144,
			"type":"SCALAR"
		},
		{
			"bufferView":3,
			"componentType":5126,
			"count":1666,
			"max":[
				0.3784700036048889,
				0.2814500033855438,
				0.3784700036048889
			],
			"min":[
				-0.3784700036048889,
				-0.6258900165557861,
				-0.3784700036048889
			],
			"type":"VEC3"
		},
		{
			"bufferView":4,
			"componentType":5126,
			"count":1666,
			"type":"VEC3"
		},
		{
			"bufferView":5,
			"componentType":5123,
			"count":9984,
			"type":"SCALAR"
		},
		{
			"bufferView":6,
			"componentType":5126,
			"count":900,
			"max":[
				0.14621999859809875,
				-0.5509999990463257,
				-0.7230100035667419
			],
			"min":[
				-0.28529998660087585,
				-0.8430500030517578,
				-0.8985000252723694
			],
			"type":"VEC3"
		},
		{
			"bufferView":7,
			"componentType":5126,
			"count":900,
			"type":"VEC3"
		},
		{
			"bufferView":8,
			"componentType":5126,
			"count":900,
			"type":"VEC2"
		},
		{
			"bufferView":9,
			"componentType":5123,
			"count":5376,
			"type":"SCALAR"
		},
		{
			"bufferView":10,
			"componentType":5126,
			"count":12300,
			"max":[
				3.6354498863220215,
				1.0712499618530273,
				1.0712499618530273
			],
			"min":[
				0.15249000489711761,
				-1.0712499618530273,
				-1.0712499618530273
			],
			"type":"VEC3"
		},
		{
			"bufferView":11,
			"componentType":5126,
			"count":12300,
			"type":"VEC3"
		},
		{
			"bufferView":12,
			"componentType":5126,
			"count":12300,
			"type":"VEC2"
		},
		{
			"bufferView":13,
			"componentType":5123,
			"count":73728,
			"type":"SCALAR"
		},
		{
			"bufferView":14,
			"componentType":5126,
			"count":65631,
			"max":[
				1.4921300411224365,
				0.897130012512207,
				-4.568470001220703
			],
			"min":[
				0.20306000113487244,
				-0.8466299772262573,
				-6.363810062408447
			],
			"type":"VEC3"
		},
		{
			"bufferView":15,
			"componentType":5126,
			"count":65631,
			"type":"VEC3"
		},
		{
			"bufferView":16,
			"componentType":5126,
			"count":65631,
			"type":"VEC2"
		},
		{
			"bufferView":17,
			"componentType":5125,
			"count":350544,
			"type":"SCALAR"
		},
		{
			"bufferView":18,
			"componentType":5126,
			"count":65716,
			"max":[
				2.4035699367523193,
				0.8407999873161316,
				-4.598869800567627
			],
			"min":[
				-0.2505899965763092,
				-0.7388399839401245,
				-6.39192008972168
			],
			"type":"VEC3"
		},
		{
			"bufferView":19,
			"componentType":5126,
			"count":65716,
			"type":"VEC3"
		},
		{
			"bufferView":20,
			"componentType":5126,
			"count":65716,
			"type":"VEC2"
		},
		{
			"bufferView":21,
			"componentType":5125,
			"count":316257,
			"type":"SCALAR"
		},
		{
			"bufferView":22,
			"componentType":5126,
			"count":65738,
			"max":[
				2.4026501178741455,
				0.39732998609542847,
				-4.569320201873779
			],
			"min":[
				-0.49693000316619873,
				-0.8530799746513367,
				-6.392730236053467
			],
			"type":"VEC3"
		},
		{
			"bufferView":23,
			"componentType":5126,
			"count":65738,
			"type":"VEC3"
		},
		{
			"bufferView":24,
			"componentType":5126,
			"count":65738,
			"type":"VEC2"
		},
		{
			"bufferView":25,
			"componentType":5125,
			"count":314700,
			"type":"SCALAR"
		},
		{
			"bufferView":26,
			"componentType":5126,
			"count":65647,
			"max":[
				2.4014899730682373,
				0.020980000495910645,
				-4.624129772186279
			],
			"min":[
				-0.4973500072956085,
				-0.8559499979019165,
				-6.395569801330566
			],
			"type":"VEC3"
		},
		{
			"bufferView":27,
			"componentType":5126,
			"count":65647,
			"type":"VEC3"
		},
		{
			"bufferView":28,
			"componentType":5126,
			"count":65647,
			"type":"VEC2"
		},
		{
			"bufferView":29,
			"componentType":5125,
			"count":332004,
			"type":"SCALAR"
		},
		{
			"bufferView":30,
			"componentType":5126,
			"count":44906,
			"max":[
				2.4026899337768555,
				0.324209988117218,
				-4.569519996643066
			],
			"min":[
				-0.4975399971008301,
				-0.8527100086212158,
				-6.394489765167236
			],
			"type":"VEC3"
		},
		{
			"bufferView":31,
			"componentType":5126,
			"count":44906,
			"type":"VEC3"
		},
		{
			"bufferView":32,
			"componentType":5126,
			"count":44906,
			"type":"VEC2"
		},
		{
			"bufferView":33,
			"componentType":5123,
			"count":177876,
			"type":"SCALAR"
		}
	],
	"bufferViews":[
		{
			"buffer":0,
			"byteLength":792,
			"byteOffset":0,
			"target":34962
		},
		{
			"buffer":0,
			"byteLength":792,
			"byteOffset":792,
			"target":34962
		},
		{
			"buffer":0,
			"byteLength":288,
			"byteOffset":1584,
			"target":34963
		},
		{
			"buffer":0,
			"byteLength":19992,
			"byteOffset":1872,
			"target":34962
		},
		{
			"buffer":0,
			"byteLength":19992,
			"byteOffset":21864,
			"target":34962
		},
		{
			"buffer":0,
			"byteLength":19968,
			"byteOffset":41856,
			"target":34963
		},
		{
			"buffer":0,
			"byteLength":10800,
			"byteOffset":61824,
			"target":34962
		},
		{
			"buffer":0,
			"byteLength":10800,
			"byteOffset":72624,
			"target":34962
		},
		{
			"buffer":0,
			"byteLength":7200,
			"byteOffset":83424,
			"target":34962
		},
		{
			"buffer":0,
			"byteLength":10752,
			"byteOffset":90624,
			"target":34963
		},
		{
			"buffer":0,
			"byteLength":147600,
			"byteOffset":101376,
			"target":34962
		},
		{
			"buffer":0,
			"byteLength":147600,
			"byteOffset":248976,
			"target":34962
		},
		{
			"buffer":0,
			"byteLength":98400,
			"byteOffset":396576,
			"target":34962
		},
		{
			"buffer":0,
			"byteLength":147456,
			"byteOffset":494976,
			"target":34963
		},
		{
			"buffer":0,
			"byteLength":787572,
			"byteOffset":642432,
			"target":34962
		},
		{
			"buffer":0,
			"byteLength":787572,
			"byteOffset":1430004,
			"target":34962
		},
		{
			"buffer":0,
			"byteLength":525048,
			"byteOffset":2217576,
			"target":34962
		},
		{
			"buffer":0,
			"byteLength":1402176,
			"byteOffset":2742624,
			"target":34963
		},
		{
			"buffer":0,
			"byteLength":788592,
			"byteOffset":4144800,
			"target":34962
		},
		{
			"buffer":0,
			"byteLength":788592,
			"byteOffset":4933392,
			"target":34962
		},
		{
			"buffer":0,
			"byteLength":525728,
			"byteOffset":5721984,
			"target":34962
		},
		{
			"buffer":0,
			"byteLength":1265028,
			"byteOffset":6247712,
			"target":34963
		},
		{
			"buffer":0,
			"byteLength":788856,
			"byteOffset":7512740,
			"target":34962
		},
		{
			"buffer":0,
			"byteLength":788856,
			"byteOffset":8301596,
			"target":34962
		},
		{
			"buffer":0,
			"byteLength":525904,
			"byteOffset":9090452,
			"target":34962
		},
		{
			"buffer":0,
			"byteLength":1258800,
			"byteOffset":9616356,
			"target":34963
		},
		{
			"buffer":0,
			"byteLength":787764,
			"byteOffset":10875156,
			"target":34962
		},
		{
			"buffer":0,
			"byteLength":787764,
			"byteOffset":11662920,
			"target":34962
		},
		{
			"buffer":0,
			"byteLength":525176,
			"byteOffset":12450684,
			"target":34962
		},
		{
			"buffer":0,
			"byteLength":1328016,
			"byteOffset":12975860,
			"target":34963
		},
		{
			"buffer":0,
			"byteLength":538872,
			"byteOffset":14303876,
			"target":34962
		},
		{
			"buffer":0,
			"byteLength":538872,
			"byteOffset":14842748,
			"target":34962
		},
		{
			"buffer":0,
			"byteLength":359248,
			"byteOffset":15381620,
			"target":34962
		},
		{
			"buffer":0,
			"byteLength":355752,
			"byteOffset":15740868,
			"target":34963
		}
	],
	"samplers":[
		{
			"magFilter":9729,
			"minFilter":9987
		}
	],
	"buffers":[
		{
			"byteLength":16096620,
			"uri":"scene.bin"
		}
	]
}
