{
	"asset":{
		"generator":"Khronos glTF Blender I/O v4.2.70",
		"version":"2.0"
	},
	"scene":0,
	"scenes":[
		{
			"name":"Scene",
			"nodes":[
				5
			]
		}
	],
	"nodes":[
		{
			"mesh":0,
			"name":"Object_3"
		},
		{
			"mesh":1,
			"name":"Object_4"
		},
		{
			"mesh":2,
			"name":"Object_5"
		},
		{
			"children":[
				0,
				1,
				2
			],
			"name":"Object_2"
		},
		{
			"children":[
				3
			],
			"name":"photo.obj.cleaner.gles",
			"translation":[
				-12.94325065612793,
				-16.326316833496094,
				9.466169357299805
			]
		},
		{
			"children":[
				4
			],
			"name":"Sketchfab_model",
			"rotation":[
				-0.24525359272956848,
				0.21888290345668793,
				0.3594605624675751,
				0.8733436465263367
			],
			"translation":[
				-6.827901840209961,
				2.528843402862549,
				-12.710875511169434
			]
		}
	],
	"materials":[
		{
			"doubleSided":true,
			"name":"Frameblinn2SG",
			"pbrMetallicRoughness":{
				"baseColorTexture":{
					"index":0
				},
				"metallicFactor":0,
				"roughnessFactor":0
			}
		},
		{
			"doubleSided":true,
			"name":"Framelambert79SG",
			"pbrMetallicRoughness":{
				"baseColorTexture":{
					"index":1
				},
				"metallicFactor":0,
				"roughnessFactor":0.07000000029802322
			}
		},
		{
			"doubleSided":true,
			"name":"initialShadingGroup",
			"pbrMetallicRoughness":{
				"baseColorTexture":{
					"index":2
				},
				"metallicFactor":0,
				"roughnessFactor":0.1599999964237213
			}
		}
	],
	"meshes":[
		{
			"name":"Object_0",
			"primitives":[
				{
					"attributes":{
						"POSITION":0,
						"NORMAL":1,
						"TEXCOORD_0":2
					},
					"indices":3,
					"material":0
				}
			]
		},
		{
			"name":"Object_1",
			"primitives":[
				{
					"attributes":{
						"POSITION":4,
						"NORMAL":5,
						"TEXCOORD_0":6
					},
					"indices":7,
					"material":1
				}
			]
		},
		{
			"name":"Object_2",
			"primitives":[
				{
					"attributes":{
						"POSITION":8,
						"NORMAL":9,
						"TEXCOORD_0":10
					},
					"indices":11,
					"material":2
				}
			]
		}
	],
	"textures":[
		{
			"sampler":0,
			"source":0
		},
		{
			"sampler":0,
			"source":0
		},
		{
			"sampler":0,
			"source":0
		}
	],
	"images":[
		{
			"mimeType":"image/png",
			"name":"Frameblinn2SG_baseColor",
			"uri":"textures/Frameblinn2SG_baseColor.png"
		}
	],
	"accessors":[
		{
			"bufferView":0,
			"componentType":5126,
			"count":18,
			"max":[
				25.55394744873047,
				29.529979705810547,
				16.747337341308594
			],
			"min":[
				3.974349021911621,
				4.239697456359863,
				2.432149887084961
			],
			"type":"VEC3"
		},
		{
			"bufferView":1,
			"componentType":5126,
			"count":18,
			"type":"VEC3"
		},
		{
			"bufferView":2,
			"componentType":5126,
			"count":18,
			"type":"VEC2"
		},
		{
			"bufferView":3,
			"componentType":5123,
			"count":48,
			"type":"SCALAR"
		},
		{
			"bufferView":4,
			"componentType":5126,
			"count":18,
			"max":[
				25.62533950805664,
				29.55817985534668,
				16.650272369384766
			],
			"min":[
				4.045742034912109,
				4.2678985595703125,
				2.335085868835449
			],
			"type":"VEC3"
		},
		{
			"bufferView":5,
			"componentType":5126,
			"count":18,
			"type":"VEC3"
		},
		{
			"bufferView":6,
			"componentType":5126,
			"count":18,
			"type":"VEC2"
		},
		{
			"bufferView":7,
			"componentType":5123,
			"count":48,
			"type":"SCALAR"
		},
		{
			"bufferView":8,
			"componentType":5126,
			"count":176,
			"max":[
				27.202640533447266,
				31.502307891845703,
				18.116771697998047
			],
			"min":[
				0,
				0,
				0
			],
			"type":"VEC3"
		},
		{
			"bufferView":9,
			"componentType":5126,
			"count":176,
			"type":"VEC3"
		},
		{
			"bufferView":10,
			"componentType":5126,
			"count":176,
			"type":"VEC2"
		},
		{
			"bufferView":11,
			"componentType":5123,
			"count":468,
			"type":"SCALAR"
		}
	],
	"bufferViews":[
		{
			"buffer":0,
			"byteLength":216,
			"byteOffset":0,
			"target":34962
		},
		{
			"buffer":0,
			"byteLength":216,
			"byteOffset":216,
			"target":34962
		},
		{
			"buffer":0,
			"byteLength":144,
			"byteOffset":432,
			"target":34962
		},
		{
			"buffer":0,
			"byteLength":96,
			"byteOffset":576,
			"target":34963
		},
		{
			"buffer":0,
			"byteLength":216,
			"byteOffset":672,
			"target":34962
		},
		{
			"buffer":0,
			"byteLength":216,
			"byteOffset":888,
			"target":34962
		},
		{
			"buffer":0,
			"byteLength":144,
			"byteOffset":1104,
			"target":34962
		},
		{
			"buffer":0,
			"byteLength":96,
			"byteOffset":1248,
			"target":34963
		},
		{
			"buffer":0,
			"byteLength":2112,
			"byteOffset":1344,
			"target":34962
		},
		{
			"buffer":0,
			"byteLength":2112,
			"byteOffset":3456,
			"target":34962
		},
		{
			"buffer":0,
			"byteLength":1408,
			"byteOffset":5568,
			"target":34962
		},
		{
			"buffer":0,
			"byteLength":936,
			"byteOffset":6976,
			"target":34963
		}
	],
	"samplers":[
		{
			"magFilter":9729,
			"minFilter":9987
		}
	],
	"buffers":[
		{
			"byteLength":7912,
			"uri":"scene.bin"
		}
	]
}
