{
	"asset":{
		"generator":"Khronos glTF Blender I/O v4.2.70",
		"version":"2.0"
	},
	"scene":0,
	"scenes":[
		{
			"name":"Scene",
			"nodes":[
				5,
				11,
				17
			]
		}
	],
	"nodes":[
		{
			"mesh":0,
			"name":"Object_3",
			"translation":[
				-0.9185426235198975,
				0.8744571208953857,
				-0.2876855731010437
			]
		},
		{
			"mesh":1,
			"name":"Object_4",
			"translation":[
				-0.9185426235198975,
				0.8744571208953857,
				-0.2876855731010437
			]
		},
		{
			"mesh":2,
			"name":"Object_5",
			"translation":[
				-0.9185426235198975,
				0.8744571208953857,
				-0.2876855731010437
			]
		},
		{
			"children":[
				0,
				1,
				2
			],
			"name":"Object_2"
		},
		{
			"children":[
				3
			],
			"name":"photo.obj.cleaner.gles",
			"translation":[
				-12.943252563476562,
				-16.326318740844727,
				9.466170310974121
			]
		},
		{
			"children":[
				4
			],
			"name":"Sketchfab_model",
			"rotation":[
				-0.24262085556983948,
				0.21115784347057343,
				0.31976211071014404,
				0.8912349343299866
			],
			"translation":[
				-6.2578020095825195,
				2.9083757400512695,
				-11.005901336669922
			]
		},
		{
			"mesh":3,
			"name":"Object_3.001"
		},
		{
			"mesh":4,
			"name":"Object_4.001"
		},
		{
			"mesh":5,
			"name":"Object_5.001"
		},
		{
			"children":[
				6,
				7,
				8
			],
			"name":"Object_2.001"
		},
		{
			"children":[
				9
			],
			"name":"photo.obj.cleaner.gles.001",
			"translation":[
				-12.94325065612793,
				-16.326316833496094,
				9.466169357299805
			]
		},
		{
			"children":[
				10
			],
			"name":"Sketchfab_model.001",
			"rotation":[
				-0.27981433272361755,
				0.18561026453971863,
				0.3746274411678314,
				0.8642378449440002
			],
			"translation":[
				16.99028968811035,
				2.528843402862549,
				-12.710875511169434
			]
		},
		{
			"mesh":6,
			"name":"Object_3.002",
			"translation":[
				0,
				-2.205371856689453e-06,
				0
			]
		},
		{
			"mesh":7,
			"name":"Object_4.002",
			"translation":[
				0,
				-2.205371856689453e-06,
				0
			]
		},
		{
			"mesh":8,
			"name":"Object_5.002",
			"translation":[
				0,
				-2.205371856689453e-06,
				0
			]
		},
		{
			"children":[
				12,
				13,
				14
			],
			"name":"Object_2.002",
			"translation":[
				0,
				-2.205371856689453e-06,
				0
			]
		},
		{
			"children":[
				15
			],
			"name":"photo.obj.cleaner.gles.002",
			"translation":[
				-12.943252563476562,
				-16.32632064819336,
				9.466169357299805
			]
		},
		{
			"children":[
				16
			],
			"name":"Sketchfab_model.002",
			"rotation":[
				-0.232008695602417,
				0.2571067214012146,
				0.38602107763290405,
				0.8550180196762085
			],
			"translation":[
				-30.647981643676758,
				2.528843402862549,
				-13.448827743530273
			]
		}
	],
	"materials":[
		{
			"doubleSided":true,
			"name":"Frameblinn2SG",
			"pbrMetallicRoughness":{
				"baseColorTexture":{
					"index":0
				},
				"metallicFactor":0,
				"roughnessFactor":0
			}
		},
		{
			"doubleSided":true,
			"name":"Framelambert79SG",
			"pbrMetallicRoughness":{
				"baseColorTexture":{
					"index":1
				},
				"metallicFactor":0,
				"roughnessFactor":0.07000000029802322
			}
		},
		{
			"doubleSided":true,
			"name":"initialShadingGroup",
			"pbrMetallicRoughness":{
				"baseColorTexture":{
					"index":2
				},
				"metallicFactor":0,
				"roughnessFactor":0.1599999964237213
			}
		},
		{
			"doubleSided":true,
			"name":"Frameblinn2SG.001",
			"pbrMetallicRoughness":{
				"baseColorTexture":{
					"index":3
				},
				"metallicFactor":0,
				"roughnessFactor":0
			}
		},
		{
			"doubleSided":true,
			"name":"Framelambert79SG.001",
			"pbrMetallicRoughness":{
				"baseColorTexture":{
					"index":4
				},
				"metallicFactor":0,
				"roughnessFactor":0.07000000029802322
			}
		},
		{
			"doubleSided":true,
			"name":"initialShadingGroup.001",
			"pbrMetallicRoughness":{
				"baseColorTexture":{
					"index":5
				},
				"metallicFactor":0,
				"roughnessFactor":0.1599999964237213
			}
		},
		{
			"doubleSided":true,
			"name":"Frameblinn2SG.002",
			"pbrMetallicRoughness":{
				"baseColorTexture":{
					"index":6
				},
				"metallicFactor":0,
				"roughnessFactor":0
			}
		},
		{
			"doubleSided":true,
			"name":"Framelambert79SG.002",
			"pbrMetallicRoughness":{
				"baseColorTexture":{
					"index":7
				},
				"metallicFactor":0,
				"roughnessFactor":0.07000000029802322
			}
		},
		{
			"doubleSided":true,
			"name":"initialShadingGroup.002",
			"pbrMetallicRoughness":{
				"baseColorTexture":{
					"index":8
				},
				"metallicFactor":0,
				"roughnessFactor":0.1599999964237213
			}
		}
	],
	"meshes":[
		{
			"name":"Object_0",
			"primitives":[
				{
					"attributes":{
						"POSITION":0,
						"NORMAL":1,
						"TEXCOORD_0":2
					},
					"indices":3,
					"material":0
				}
			]
		},
		{
			"name":"Object_1",
			"primitives":[
				{
					"attributes":{
						"POSITION":4,
						"NORMAL":5,
						"TEXCOORD_0":6
					},
					"indices":7,
					"material":1
				}
			]
		},
		{
			"name":"Object_2",
			"primitives":[
				{
					"attributes":{
						"POSITION":8,
						"NORMAL":9,
						"TEXCOORD_0":10
					},
					"indices":11,
					"material":2
				}
			]
		},
		{
			"name":"Object_0.001",
			"primitives":[
				{
					"attributes":{
						"POSITION":12,
						"NORMAL":13,
						"TEXCOORD_0":14
					},
					"indices":3,
					"material":3
				}
			]
		},
		{
			"name":"Object_1.001",
			"primitives":[
				{
					"attributes":{
						"POSITION":15,
						"NORMAL":16,
						"TEXCOORD_0":17
					},
					"indices":7,
					"material":4
				}
			]
		},
		{
			"name":"Object_2.001",
			"primitives":[
				{
					"attributes":{
						"POSITION":18,
						"NORMAL":19,
						"TEXCOORD_0":20
					},
					"indices":11,
					"material":5
				}
			]
		},
		{
			"name":"Object_0.002",
			"primitives":[
				{
					"attributes":{
						"POSITION":21,
						"NORMAL":22,
						"TEXCOORD_0":23
					},
					"indices":3,
					"material":6
				}
			]
		},
		{
			"name":"Object_1.002",
			"primitives":[
				{
					"attributes":{
						"POSITION":24,
						"NORMAL":25,
						"TEXCOORD_0":26
					},
					"indices":7,
					"material":7
				}
			]
		},
		{
			"name":"Object_2.002",
			"primitives":[
				{
					"attributes":{
						"POSITION":27,
						"NORMAL":28,
						"TEXCOORD_0":29
					},
					"indices":11,
					"material":8
				}
			]
		}
	],
	"textures":[
		{
			"sampler":0,
			"source":0
		},
		{
			"sampler":0,
			"source":0
		},
		{
			"sampler":0,
			"source":0
		},
		{
			"sampler":0,
			"source":1
		},
		{
			"sampler":0,
			"source":1
		},
		{
			"sampler":0,
			"source":1
		},
		{
			"sampler":0,
			"source":2
		},
		{
			"sampler":0,
			"source":2
		},
		{
			"sampler":0,
			"source":2
		}
	],
	"images":[
		{
			"mimeType":"image/png",
			"name":"Frameblinn2SG_baseColor",
			"uri":"textures/Frameblinn2SG_baseColor.png"
		},
		{
			"mimeType":"image/png",
			"name":"Frameblinn2SG_baseColor",
			"uri":"textures/Frameblinn2SG_baseColor-1.png"
		},
		{
			"mimeType":"image/png",
			"name":"Frameblinn2SG_baseColor",
			"uri":"textures/Frameblinn2SG_baseColor-2.png"
		}
	],
	"accessors":[
		{
			"bufferView":0,
			"componentType":5126,
			"count":18,
			"max":[
				25.55394744873047,
				29.529979705810547,
				16.747337341308594
			],
			"min":[
				3.974349021911621,
				4.239697456359863,
				2.432149887084961
			],
			"type":"VEC3"
		},
		{
			"bufferView":1,
			"componentType":5126,
			"count":18,
			"type":"VEC3"
		},
		{
			"bufferView":2,
			"componentType":5126,
			"count":18,
			"type":"VEC2"
		},
		{
			"bufferView":3,
			"componentType":5123,
			"count":48,
			"type":"SCALAR"
		},
		{
			"bufferView":4,
			"componentType":5126,
			"count":18,
			"max":[
				25.62533950805664,
				29.55817985534668,
				16.650272369384766
			],
			"min":[
				4.045742034912109,
				4.2678985595703125,
				2.335085868835449
			],
			"type":"VEC3"
		},
		{
			"bufferView":5,
			"componentType":5126,
			"count":18,
			"type":"VEC3"
		},
		{
			"bufferView":6,
			"componentType":5126,
			"count":18,
			"type":"VEC2"
		},
		{
			"bufferView":7,
			"componentType":5123,
			"count":48,
			"type":"SCALAR"
		},
		{
			"bufferView":8,
			"componentType":5126,
			"count":176,
			"max":[
				27.202640533447266,
				31.502307891845703,
				18.116771697998047
			],
			"min":[
				0,
				0,
				0
			],
			"type":"VEC3"
		},
		{
			"bufferView":9,
			"componentType":5126,
			"count":176,
			"type":"VEC3"
		},
		{
			"bufferView":10,
			"componentType":5126,
			"count":176,
			"type":"VEC2"
		},
		{
			"bufferView":11,
			"componentType":5123,
			"count":468,
			"type":"SCALAR"
		},
		{
			"bufferView":12,
			"componentType":5126,
			"count":18,
			"max":[
				25.55394744873047,
				29.529979705810547,
				16.747337341308594
			],
			"min":[
				3.974349021911621,
				4.239697456359863,
				2.432149887084961
			],
			"type":"VEC3"
		},
		{
			"bufferView":13,
			"componentType":5126,
			"count":18,
			"type":"VEC3"
		},
		{
			"bufferView":14,
			"componentType":5126,
			"count":18,
			"type":"VEC2"
		},
		{
			"bufferView":15,
			"componentType":5126,
			"count":18,
			"max":[
				25.62533950805664,
				29.55817985534668,
				16.650272369384766
			],
			"min":[
				4.045742034912109,
				4.2678985595703125,
				2.335085868835449
			],
			"type":"VEC3"
		},
		{
			"bufferView":16,
			"componentType":5126,
			"count":18,
			"type":"VEC3"
		},
		{
			"bufferView":17,
			"componentType":5126,
			"count":18,
			"type":"VEC2"
		},
		{
			"bufferView":18,
			"componentType":5126,
			"count":176,
			"max":[
				27.202640533447266,
				31.502307891845703,
				18.116771697998047
			],
			"min":[
				0,
				0,
				0
			],
			"type":"VEC3"
		},
		{
			"bufferView":19,
			"componentType":5126,
			"count":176,
			"type":"VEC3"
		},
		{
			"bufferView":20,
			"componentType":5126,
			"count":176,
			"type":"VEC2"
		},
		{
			"bufferView":21,
			"componentType":5126,
			"count":18,
			"max":[
				25.55394744873047,
				29.529979705810547,
				16.747337341308594
			],
			"min":[
				3.974349021911621,
				4.239697456359863,
				2.432149887084961
			],
			"type":"VEC3"
		},
		{
			"bufferView":22,
			"componentType":5126,
			"count":18,
			"type":"VEC3"
		},
		{
			"bufferView":23,
			"componentType":5126,
			"count":18,
			"type":"VEC2"
		},
		{
			"bufferView":24,
			"componentType":5126,
			"count":18,
			"max":[
				25.62533950805664,
				29.55817985534668,
				16.650272369384766
			],
			"min":[
				4.045742034912109,
				4.2678985595703125,
				2.335085868835449
			],
			"type":"VEC3"
		},
		{
			"bufferView":25,
			"componentType":5126,
			"count":18,
			"type":"VEC3"
		},
		{
			"bufferView":26,
			"componentType":5126,
			"count":18,
			"type":"VEC2"
		},
		{
			"bufferView":27,
			"componentType":5126,
			"count":176,
			"max":[
				27.202640533447266,
				31.502307891845703,
				18.116771697998047
			],
			"min":[
				0,
				0,
				0
			],
			"type":"VEC3"
		},
		{
			"bufferView":28,
			"componentType":5126,
			"count":176,
			"type":"VEC3"
		},
		{
			"bufferView":29,
			"componentType":5126,
			"count":176,
			"type":"VEC2"
		}
	],
	"bufferViews":[
		{
			"buffer":0,
			"byteLength":216,
			"byteOffset":0,
			"target":34962
		},
		{
			"buffer":0,
			"byteLength":216,
			"byteOffset":216,
			"target":34962
		},
		{
			"buffer":0,
			"byteLength":144,
			"byteOffset":432,
			"target":34962
		},
		{
			"buffer":0,
			"byteLength":96,
			"byteOffset":576,
			"target":34963
		},
		{
			"buffer":0,
			"byteLength":216,
			"byteOffset":672,
			"target":34962
		},
		{
			"buffer":0,
			"byteLength":216,
			"byteOffset":888,
			"target":34962
		},
		{
			"buffer":0,
			"byteLength":144,
			"byteOffset":1104,
			"target":34962
		},
		{
			"buffer":0,
			"byteLength":96,
			"byteOffset":1248,
			"target":34963
		},
		{
			"buffer":0,
			"byteLength":2112,
			"byteOffset":1344,
			"target":34962
		},
		{
			"buffer":0,
			"byteLength":2112,
			"byteOffset":3456,
			"target":34962
		},
		{
			"buffer":0,
			"byteLength":1408,
			"byteOffset":5568,
			"target":34962
		},
		{
			"buffer":0,
			"byteLength":936,
			"byteOffset":6976,
			"target":34963
		},
		{
			"buffer":0,
			"byteLength":216,
			"byteOffset":7912,
			"target":34962
		},
		{
			"buffer":0,
			"byteLength":216,
			"byteOffset":8128,
			"target":34962
		},
		{
			"buffer":0,
			"byteLength":144,
			"byteOffset":8344,
			"target":34962
		},
		{
			"buffer":0,
			"byteLength":216,
			"byteOffset":8488,
			"target":34962
		},
		{
			"buffer":0,
			"byteLength":216,
			"byteOffset":8704,
			"target":34962
		},
		{
			"buffer":0,
			"byteLength":144,
			"byteOffset":8920,
			"target":34962
		},
		{
			"buffer":0,
			"byteLength":2112,
			"byteOffset":9064,
			"target":34962
		},
		{
			"buffer":0,
			"byteLength":2112,
			"byteOffset":11176,
			"target":34962
		},
		{
			"buffer":0,
			"byteLength":1408,
			"byteOffset":13288,
			"target":34962
		},
		{
			"buffer":0,
			"byteLength":216,
			"byteOffset":14696,
			"target":34962
		},
		{
			"buffer":0,
			"byteLength":216,
			"byteOffset":14912,
			"target":34962
		},
		{
			"buffer":0,
			"byteLength":144,
			"byteOffset":15128,
			"target":34962
		},
		{
			"buffer":0,
			"byteLength":216,
			"byteOffset":15272,
			"target":34962
		},
		{
			"buffer":0,
			"byteLength":216,
			"byteOffset":15488,
			"target":34962
		},
		{
			"buffer":0,
			"byteLength":144,
			"byteOffset":15704,
			"target":34962
		},
		{
			"buffer":0,
			"byteLength":2112,
			"byteOffset":15848,
			"target":34962
		},
		{
			"buffer":0,
			"byteLength":2112,
			"byteOffset":17960,
			"target":34962
		},
		{
			"buffer":0,
			"byteLength":1408,
			"byteOffset":20072,
			"target":34962
		}
	],
	"samplers":[
		{
			"magFilter":9729,
			"minFilter":9987
		}
	],
	"buffers":[
		{
			"byteLength":21480,
			"uri":"scene.bin"
		}
	]
}
